<?xml version="1.0" encoding="UTF-8"?>
<svg width="10px" height="10px" viewBox="0 0 10 10" version="1.1" xmlns="http://www.w3.org/2000/svg" xmlns:xlink="http://www.w3.org/1999/xlink">
    <!-- Generator: Sketch 52.5 (67469) - http://www.bohemiancoding.com/sketch -->
    <title>Icons/10px/Add</title>
    <desc>Created with Sketch.</desc>
    <g id="Icons/10px/Add" stroke="none" stroke-width="1" fill="none" fill-rule="evenodd">
        <path d="M5.625,4.37166667 L8.625,4.37166667 C9.03921356,4.37166667 9.375,4.7074531 9.375,5.12166667 C9.375,5.53588023 9.03921356,5.87166667 8.625,5.87166667 L5.625,5.87166667 L5.625,8.87166667 C5.625,9.28588023 5.28921356,9.62166667 4.875,9.62166667 C4.46078644,9.62166667 4.125,9.28588023 4.125,8.87166667 L4.125,5.87166667 L1.125,5.87166667 C0.710786438,5.87166667 0.375,5.53588023 0.375,5.12166667 C0.375,4.7074531 0.710786438,4.37166667 1.125,4.37166667 L4.125,4.37166667 L4.125,1.37166667 C4.125,0.957453104 4.46078644,0.621666667 4.875,0.621666667 C5.28921356,0.621666667 5.625,0.957453104 5.625,1.37166667 L5.625,4.37166667 Z" id="Plus" fill="#313133" fill-rule="nonzero"></path>
    </g>
</svg>