<?xml version="1.0" encoding="UTF-8"?>
<svg width="18px" height="18px" viewBox="0 0 18 18" version="1.1" xmlns="http://www.w3.org/2000/svg" xmlns:xlink="http://www.w3.org/1999/xlink">
    <!-- Generator: Sketch 52.5 (67469) - http://www.bohemiancoding.com/sketch -->
    <title>Icons/18px/Calendar</title>
    <desc>Created with Sketch.</desc>
    <g id="Icons/18px/Calendar" stroke="none" stroke-width="1" fill="none" fill-rule="evenodd">
        <path d="M12.8136667,4.9375 L12.8136667,5.5 C12.8136667,5.91421356 12.4778802,6.25 12.0636667,6.25 C11.6494531,6.25 11.3136667,5.91421356 11.3136667,5.5 L11.3136667,4.9375 L6.68866667,4.9375 L6.68866667,5.5 C6.68866667,5.91421356 6.35288023,6.25 5.93866667,6.25 C5.5244531,6.25 5.18866667,5.91421356 5.18866667,5.5 L5.18866667,4.9375 L3.60533333,4.9375 C3.37521469,4.9375 3.18866667,5.12404802 3.18866667,5.35416667 L3.18866667,6.9375 L14.8136667,6.9375 L14.8136667,5.35416667 C14.8136667,5.12404802 14.6271186,4.9375 14.397,4.9375 L12.8136667,4.9375 Z M12.8136667,3.4375 L14.397,3.4375 C15.4555458,3.4375 16.3136667,4.2956209 16.3136667,5.35416667 L16.3136667,14.3958333 C16.3136667,15.4543791 15.4555458,16.3125 14.397,16.3125 L3.60533333,16.3125 C2.54678756,16.3125 1.68866667,15.4543791 1.68866667,14.3958333 L1.68866667,5.35416667 C1.68866667,4.2956209 2.54678756,3.4375 3.60533333,3.4375 L5.18866667,3.4375 L5.18866667,2.4375 C5.18866667,2.02328644 5.5244531,1.6875 5.93866667,1.6875 C6.35288023,1.6875 6.68866667,2.02328644 6.68866667,2.4375 L6.68866667,3.4375 L11.3136667,3.4375 L11.3136667,2.4375 C11.3136667,2.02328644 11.6494531,1.6875 12.0636667,1.6875 C12.4778802,1.6875 12.8136667,2.02328644 12.8136667,2.4375 L12.8136667,3.4375 Z M3.18866667,8.4375 L3.18866667,14.3958333 C3.18866667,14.625952 3.37521469,14.8125 3.60533333,14.8125 L14.397,14.8125 C14.6271186,14.8125 14.8136667,14.625952 14.8136667,14.3958333 L14.8136667,8.4375 L3.18866667,8.4375 Z" id="🎨" fill="#313133" fill-rule="nonzero"></path>
    </g>
</svg>