<?xml version="1.0" encoding="UTF-8"?>
<svg width="18px" height="18px" viewBox="0 0 18 18" version="1.1" xmlns="http://www.w3.org/2000/svg" xmlns:xlink="http://www.w3.org/1999/xlink">
    <!-- Generator: Sketch 52.5 (67469) - http://www.bohemiancoding.com/sketch -->
    <title>Icons/18px/Check</title>
    <desc>Created with Sketch.</desc>
    <g id="Icons/18px/Check" stroke="none" stroke-width="1" fill="none" fill-rule="evenodd">
        <path d="M15.4604534,3.47904942 C15.7481665,3.18106608 16.2229672,3.17274038 16.5209506,3.46045344 C16.8189339,3.7481665 16.8272596,4.22296725 16.5395466,4.52095058 L7.25749292,14.1343384 C6.87842665,14.5274954 6.36028916,14.75 5.81818182,14.75 C5.27607448,14.75 4.75793699,14.5274954 4.37939273,14.1348792 L1.46060485,11.1136592 C1.17280521,10.8157594 1.18099293,10.3409563 1.47889264,10.0531567 C1.77679236,9.765357 2.2515955,9.77354473 2.53939515,10.0714444 L5.45870504,13.0932054 C5.55647126,13.1946058 5.68546545,13.25 5.81818182,13.25 C5.95089818,13.25 6.07989237,13.1946058 6.1780292,13.0928213 L15.4604534,3.47904942 Z" id="🎨" fill="#313133" fill-rule="nonzero"></path>
    </g>
</svg>