<?xml version="1.0" encoding="UTF-8"?>
<svg width="18px" height="18px" viewBox="0 0 18 18" version="1.1" xmlns="http://www.w3.org/2000/svg" xmlns:xlink="http://www.w3.org/1999/xlink">
    <!-- Generator: Sketch 52.5 (67469) - http://www.bohemiancoding.com/sketch -->
    <title>Icons/18px/Close</title>
    <desc>Created with Sketch.</desc>
    <g id="Icons/18px/Close" stroke="none" stroke-width="1" fill="none" fill-rule="evenodd">
        <path d="M7.93933983,8.99933333 L0.969669914,2.02966342 C0.676776695,1.7367702 0.676776695,1.26189647 0.969669914,0.969003247 C1.26256313,0.676110029 1.73743687,0.676110029 2.03033009,0.969003247 L9,7.93867316 L15.9696699,0.969003247 C16.2625631,0.676110029 16.7374369,0.676110029 17.0303301,0.969003247 C17.3232233,1.26189647 17.3232233,1.7367702 17.0303301,2.02966342 L10.0606602,8.99933333 L17.0303301,15.9690032 C17.3232233,16.2618965 17.3232233,16.7367702 17.0303301,17.0296634 C16.7374369,17.3225566 16.2625631,17.3225566 15.9696699,17.0296634 L9,10.0599935 L2.03033009,17.0296634 C1.73743687,17.3225566 1.26256313,17.3225566 0.969669914,17.0296634 C0.676776695,16.7367702 0.676776695,16.2618965 0.969669914,15.9690032 L7.93933983,8.99933333 Z" id="🎨" fill="#313133" fill-rule="nonzero"></path>
    </g>
</svg>