<?xml version="1.0" encoding="UTF-8"?>
<svg width="18px" height="18px" viewBox="0 0 18 18" version="1.1" xmlns="http://www.w3.org/2000/svg" xmlns:xlink="http://www.w3.org/1999/xlink">
    <!-- Generator: Sketch 52.5 (67469) - http://www.bohemiancoding.com/sketch -->
    <title>Icons/18px/Contacts</title>
    <desc>Created with Sketch.</desc>
    <g id="Icons/18px/Contacts" stroke="none" stroke-width="1" fill="none" fill-rule="evenodd">
        <path d="M6.88960837,8.29055467 C6.42894301,7.75771374 6.14814815,7.04971554 6.14814815,6.27272727 C6.14814815,4.61587302 7.42496571,3.27272727 9,3.27272727 C10.5750343,3.27272727 11.8518519,4.61587302 11.8518519,6.27272727 C11.8518519,7.04971554 11.571057,7.75771374 11.1103916,8.29055467 C12.1806566,9.01932841 12.8888889,10.2862958 12.8888889,11.7272727 C12.8888889,12.1791421 12.5406659,12.5454545 12.1111111,12.5454545 L5.88888889,12.5454545 C5.45933408,12.5454545 5.11111111,12.1791421 5.11111111,11.7272727 C5.11111111,10.2862958 5.81934341,9.01932841 6.88960837,8.29055467 Z M13.4074074,16.3636364 L13.4074074,14.7272727 L4.33333333,14.7272727 C3.90377853,14.7272727 3.55555556,15.0935852 3.55555556,15.5454545 L2,15.5454545 L2,3 C2,1.34314575 3.27681757,0 4.85185185,0 L14.7037037,0 C15.4196284,0 16,0.610520796 16,1.36363636 L16,13.3636364 C16,14.0233522 15.5546549,14.5736486 14.962963,14.6999951 L14.962963,16.3636364 L15.2222222,16.3636364 C15.651777,16.3636364 16,16.7299488 16,17.1818182 C16,17.6336875 15.651777,18 15.2222222,18 L4.33333333,18 C3.04466892,18 2,16.9010626 2,15.5454545 C2,15.0935852 2.34822297,14.7272727 2.77777778,14.7272727 C3.20733258,14.7272727 3.55555556,15.0935852 3.55555556,15.5454545 C3.55555556,15.9973239 3.90377853,16.3636364 4.33333333,16.3636364 L13.4074074,16.3636364 Z M14.4444444,1.63636364 L4.85185185,1.63636364 C4.13592718,1.63636364 3.55555556,2.24688443 3.55555556,3 L3.55555556,13.2305774 C3.79882805,13.1401262 4.06061689,13.0909091 4.33333333,13.0909091 L14.4444444,13.0909091 L14.4444444,1.63636364 Z M3.55555556,15.5454545 C3.55555556,16.6363636 2,16.6363636 2,15.5454545 C2,14.4767301 2.64929482,13.5675345 3.55555556,13.2305774 L3.55555556,15.5454545 Z M11.2005622,10.9090909 C10.880245,9.95575169 10.015948,9.27272727 9,9.27272727 C7.98405202,9.27272727 7.11975498,9.95575169 6.79943777,10.9090909 L11.2005622,10.9090909 Z M9,7.63636364 C9.71592468,7.63636364 10.2962963,7.02584284 10.2962963,6.27272727 C10.2962963,5.5196117 9.71592468,4.90909091 9,4.90909091 C8.28407532,4.90909091 7.7037037,5.5196117 7.7037037,6.27272727 C7.7037037,7.02584284 8.28407532,7.63636364 9,7.63636364 Z" id="🎨" fill="#313133" fill-rule="nonzero"></path>
    </g>
</svg>