<?xml version="1.0" encoding="UTF-8"?>
<svg width="10px" height="10px" viewBox="0 0 10 10" version="1.1" xmlns="http://www.w3.org/2000/svg" xmlns:xlink="http://www.w3.org/1999/xlink">
    <!-- Generator: Sketch 52.5 (67469) - http://www.bohemiancoding.com/sketch -->
    <title>Icons/10px/Cross</title>
    <desc>Created with Sketch.</desc>
    <g id="Icons/10px/Cross" stroke="none" stroke-width="1" fill="none" fill-rule="evenodd">
        <path d="M3.93733983,5.00005893 L0.867299376,1.93035955 C0.574389887,1.6374826 0.574363506,1.16260887 0.867240454,0.869699376 C1.1601174,0.576789887 1.63499113,0.576763506 1.92790062,0.869640454 L4.99794107,3.93933983 L8.06724045,0.869699379 C8.3601174,0.576789888 8.83499113,0.576763505 9.12790062,0.869640451 C9.42081011,1.1625174 9.4208365,1.63739113 9.12795955,1.93030062 L6.05866017,4.99994107 L9.12870062,8.06964045 C9.42161011,8.3625174 9.42163649,8.83739113 9.12875955,9.13030062 C8.8358826,9.42321011 8.36100887,9.42323649 8.06809938,9.13035955 L4.99805893,6.06066017 L1.92875955,9.13030062 C1.6358826,9.42321011 1.16100887,9.4232365 0.868099379,9.13035955 C0.575189888,8.8374826 0.575163505,8.36260887 0.868040451,8.06969938 L3.93733983,5.00005893 Z" id="Cross" fill="#313133" fill-rule="nonzero"></path>
    </g>
</svg>