<?xml version="1.0" encoding="UTF-8"?>
<svg width="18px" height="18px" viewBox="0 0 18 18" version="1.1" xmlns="http://www.w3.org/2000/svg" xmlns:xlink="http://www.w3.org/1999/xlink">
    <!-- Generator: Sketch 52.5 (67469) - http://www.bohemiancoding.com/sketch -->
    <title>Icons/18px/Cube</title>
    <desc>Created with Sketch.</desc>
    <g id="Icons/18px/Cube" stroke="none" stroke-width="1" fill="none" fill-rule="evenodd">
        <path d="M18,0.818181818 C18,0.366312477 17.6336875,0 17.1818182,0 L5.72727273,0 C5.51029515,4.63396954e-05 5.30222133,0.0862777842 5.14881818,0.239727273 L0.239727273,5.14881818 C0.0862777842,5.30222133 4.63396954e-05,5.51029515 0,5.72727273 L0,17.1818182 C0,17.6336875 0.366312477,18 0.818181818,18 L12.2727273,18 C12.4897048,17.9999537 12.6977787,17.9137222 12.8511818,17.7602727 L17.7602727,12.8511818 C17.9137222,12.6977787 17.9999537,12.4897048 18,12.2727273 L18,0.818181818 Z M4.76427273,2.93809091 C4.82277853,2.87943675 4.91088659,2.86186494 4.9874168,2.89358824 C5.06394701,2.92531153 5.11378459,3.00006455 5.11363636,3.08290909 L5.11363636,3.47727273 C5.11341779,3.53158827 5.13489785,3.5837423 5.17330505,3.62214949 C5.21171225,3.66055669 5.26386628,3.68203676 5.31818182,3.68181818 L6.13636364,3.68181818 C6.19067918,3.68203676 6.24283321,3.66055669 6.2812404,3.62214949 C6.3196476,3.5837423 6.34112767,3.53158827 6.34090909,3.47727273 L6.34090909,1.84090909 C6.34090909,1.78666026 6.36245935,1.73463333 6.40081907,1.69627361 C6.43917878,1.6579139 6.49120572,1.63636364 6.54545455,1.63636364 L14.7133636,1.63636364 C14.7962082,1.63621541 14.8709612,1.68605299 14.9026845,1.7625832 C14.9344078,1.83911341 14.916836,1.92722147 14.8581818,1.98572727 L11.9945455,4.84936364 C11.9559624,4.88798019 11.9034959,4.90949735 11.8489091,4.90909091 L3.28745455,4.90909091 C3.20461,4.90923913 3.12985699,4.85940155 3.09813369,4.78287134 C3.0664104,4.70634114 3.0839822,4.61823308 3.14263636,4.55972727 L4.76427273,2.93809091 Z M11.4545455,16.1590909 C11.4545455,16.2720582 11.3629673,16.3636364 11.25,16.3636364 L2.99781818,16.3636364 C2.91497364,16.3637846 2.84022062,16.313947 2.80849733,16.2374168 C2.77677403,16.1608866 2.79434584,16.0727785 2.853,16.0142727 L5.92118182,12.9460909 C5.95966683,12.9078294 6.01173181,12.8863563 6.066,12.8863636 L10.0227273,12.8863636 C10.1356946,12.8863636 10.2272727,12.7947855 10.2272727,12.6818182 L10.2272727,11.8636364 C10.2272727,11.750669 10.1356946,11.6590909 10.0227273,11.6590909 L6.54545455,11.6590909 C6.49120572,11.6590909 6.43917878,11.6375406 6.40081907,11.5991809 C6.36245935,11.5608212 6.34090909,11.5087943 6.34090909,11.4545455 L6.34090909,7.97727273 C6.34090909,7.86430539 6.24933097,7.77272727 6.13636364,7.77272727 L5.31818182,7.77272727 C5.20521448,7.77272727 5.11363636,7.86430539 5.11363636,7.97727273 L5.11363636,11.934 C5.11364369,11.9882682 5.09217056,12.0403332 5.05390909,12.0788182 L1.98572727,15.147 C1.92722147,15.2056542 1.83911341,15.223226 1.7625832,15.1915027 C1.68605299,15.1597794 1.63621541,15.0850264 1.63636364,15.0021818 L1.63636364,6.75 C1.63636364,6.63703266 1.72794176,6.54545455 1.84090909,6.54545455 L11.25,6.54545455 C11.3629673,6.54545455 11.4545455,6.63703266 11.4545455,6.75 L11.4545455,16.1590909 Z M13.4402727,14.8573636 C13.3817669,14.9160178 13.2936589,14.9335896 13.2171287,14.9018663 C13.1405984,14.870143 13.0907609,14.79539 13.0909091,14.7125455 L13.0909091,6.15109091 C13.0907217,6.09678721 13.1122221,6.04465597 13.1506364,6.00627273 L16.0142727,3.14263636 C16.0727785,3.0839822 16.1608866,3.0664104 16.2374168,3.09813369 C16.313947,3.12985699 16.3637846,3.20461 16.3636364,3.28745455 L16.3636364,11.4545455 C16.3636364,11.5675128 16.2720582,11.6590909 16.1590909,11.6590909 L14.5227273,11.6590909 C14.4097599,11.6590909 14.3181818,11.750669 14.3181818,11.8636364 L14.3181818,12.6818182 C14.3181818,12.7947855 14.4097599,12.8863636 14.5227273,12.8863636 L14.9170909,12.8863636 C14.9999355,12.8862154 15.0746885,12.936053 15.1064118,13.0125832 C15.1381351,13.0891134 15.1205633,13.1772215 15.0619091,13.2357273 L13.4402727,14.8573636 Z" id="🎨" fill="#313133" fill-rule="nonzero"></path>
    </g>
</svg>