<?xml version="1.0" encoding="UTF-8"?>
<svg width="18px" height="18px" viewBox="0 0 18 18" version="1.1" xmlns="http://www.w3.org/2000/svg" xmlns:xlink="http://www.w3.org/1999/xlink">
    <!-- Generator: Sketch 52.5 (67469) - http://www.bohemiancoding.com/sketch -->
    <title>Icons/18px/External</title>
    <desc>Created with Sketch.</desc>
    <g id="Icons/18px/External" stroke="none" stroke-width="1" fill="none" fill-rule="evenodd">
        <path d="M15.5454545,3.48306441 L7.09001705,11.9385019 C6.80599939,12.2225196 6.34551577,12.2225196 6.0614981,11.9385019 C5.77748043,11.6544842 5.77748043,11.1940006 6.0614981,10.9099829 L14.5169356,2.45454545 L11.9090909,2.45454545 C11.5074293,2.45454545 11.1818182,2.12893436 11.1818182,1.72727273 C11.1818182,1.32561109 11.5074293,1 11.9090909,1 L16.2727273,1 C16.6743889,1 17,1.32561109 17,1.72727273 L17,6.09090909 C17,6.49257073 16.6743889,6.81818182 16.2727273,6.81818182 C15.8710656,6.81818182 15.5454545,6.49257073 15.5454545,6.09090909 L15.5454545,3.48306441 Z M8.51515152,3.90909091 C8.91681315,3.90909091 9.24242424,4.234702 9.24242424,4.63636364 C9.24242424,5.03802527 8.91681315,5.36363636 8.51515152,5.36363636 L2.6969697,5.36363636 C2.56308248,5.36363636 2.45454545,5.47217339 2.45454545,5.60606061 L2.45454545,15.3030303 C2.45454545,15.4369175 2.56308248,15.5454545 2.6969697,15.5454545 L12.3939394,15.5454545 C12.5278266,15.5454545 12.6363636,15.4369175 12.6363636,15.3030303 L12.6363636,9.48484848 C12.6363636,9.08318685 12.9619747,8.75757576 13.3636364,8.75757576 C13.765298,8.75757576 14.0909091,9.08318685 14.0909091,9.48484848 L14.0909091,15.3030303 C14.0909091,16.2402408 13.3311499,17 12.3939394,17 L2.6969697,17 C1.75975921,17 1,16.2402408 1,15.3030303 L1,5.60606061 C1,4.66885012 1.75975921,3.90909091 2.6969697,3.90909091 L8.51515152,3.90909091 Z" id="🎨" fill="#313133" fill-rule="nonzero"></path>
    </g>
</svg>