<?xml version="1.0" encoding="UTF-8"?>
<svg width="18px" height="18px" viewBox="0 0 18 18" version="1.1" xmlns="http://www.w3.org/2000/svg" xmlns:xlink="http://www.w3.org/1999/xlink">
    <!-- Generator: Sketch 52.5 (67469) - http://www.bohemiancoding.com/sketch -->
    <title>Icons/18px/Filter</title>
    <desc>Created with Sketch.</desc>
    <g id="Icons/18px/Filter" stroke="none" stroke-width="1" fill="none" fill-rule="evenodd">
        <path d="M15.5457966,6.9797615 C15.963325,6.3152906 16.2020588,5.55570143 16.2391793,4.77359758 L16.2391793,3.07306013 C16.2391793,2.13134028 14.3228525,0 8.61958963,0 C2.91632679,0 1,2.12907289 1,3.07306013 L1,4.77359758 C1.05096727,5.83101112 1.47182338,6.83775808 2.1901799,7.62067518 L7.09567171,12.4879913 L7.09567171,16.8663084 C7.09567171,17.492429 7.60738268,18 8.23861015,18 L9.00056911,18 C9.63179659,18 10.1435076,17.492429 10.1435076,16.8663084 L10.1435076,14.9647296 C12.3216568,15.8754469 14.8449889,15.1274295 16.1621587,13.1805586 C17.4793286,11.2336877 17.2209175,8.63399055 15.5457966,6.9797615 Z M8.61958963,1.51158885 C12.401192,1.51158885 14.7152613,2.68987235 14.7152613,3.33078603 C14.7152613,3.9716997 12.401192,5.15149479 8.61958963,5.15149479 C4.8379873,5.15149479 2.52391793,3.97321129 2.52391793,3.33078603 C2.52391793,2.68836077 4.8379873,1.51158885 8.61958963,1.51158885 Z M12.048405,13.8431307 C11.4093132,13.8419693 10.7830949,13.6648337 10.2395144,13.3314578 C10.1802819,13.2977168 10.1436874,13.2352027 10.1435076,13.1674505 L10.1435076,12.5628149 C10.1435007,12.5126847 10.1634983,12.4645898 10.1991306,12.4290393 L14.3899049,8.27216997 C14.4277885,8.23473967 14.4797395,8.21474962 14.5331602,8.21704723 C14.586581,8.21934484 14.6365926,8.24372026 14.6710677,8.28426268 C15.1872136,8.88713015 15.4726495,9.65114362 15.4772203,10.4420558 C15.4751207,12.3195542 13.941217,13.841048 12.048405,13.8431307 Z" id="🎨" fill="#313133" fill-rule="nonzero"></path>
    </g>
</svg>