<?xml version="1.0" encoding="UTF-8"?>
<svg width="18px" height="18px" viewBox="0 0 18 18" version="1.1" xmlns="http://www.w3.org/2000/svg" xmlns:xlink="http://www.w3.org/1999/xlink">
    <!-- Generator: Sketch 52.5 (67469) - http://www.bohemiancoding.com/sketch -->
    <title>Icons/18px/Flow</title>
    <desc>Created with Sketch.</desc>
    <g id="Icons/18px/Flow" stroke="none" stroke-width="1" fill="none" fill-rule="evenodd">
        <path d="M18,9.375 C18,8.75367966 17.4963203,8.25 16.875,8.25 L11.4375,8.25 C11.3339466,8.25 11.25,8.16605339 11.25,8.0625 L11.25,6.75 C11.25,5.71446609 10.4105339,4.875 9.375,4.875 L6.375,4.875 C6.16789322,4.875 6,4.70710678 6,4.5 L6,3.18675 C6.00041304,3.08348962 6.0842388,2.99999917 6.1875,3 L9,3 C9.62132034,3 10.125,2.49632034 10.125,1.875 L10.125,1.125 C10.125,0.503679656 9.62132034,3.80448985e-17 9,0 L1.125,0 C0.503679656,-3.80448985e-17 7.6089797e-17,0.503679656 0,1.125 L0,1.875 C7.6089797e-17,2.49632034 0.503679656,3 1.125,3 L4.3125,3 C4.41605339,3 4.5,3.08394661 4.5,3.1875 L4.5,4.5 C4.5,5.53553391 5.33946609,6.375 6.375,6.375 L9.375,6.375 C9.58210678,6.375 9.75,6.54289322 9.75,6.75 L9.75,8.0625 C9.75,8.16605339 9.66605339,8.25 9.5625,8.25 L9,8.25 C8.37867966,8.25 7.875,8.75367966 7.875,9.375 L7.875,10.125 C7.875,10.4233686 7.99352645,10.7095167 8.20450487,10.9204951 C8.4154833,11.1314736 8.70163145,11.25 9,11.25 L12.9375,11.25 C13.0410534,11.25 13.125,11.3339466 13.125,11.4375 L13.125,15.375 C13.125,15.5821068 12.9571068,15.75 12.75,15.75 L10.16625,15.75 C10.101964,15.7501821 10.0434253,15.71301 10.01625,15.65475 C9.83350456,15.2575709 9.43719803,15.0022384 9,15 L1.125,15 C0.503679656,15 7.6089797e-17,15.5036797 0,16.125 L0,16.875 C7.6089797e-17,17.4963203 0.503679656,18 1.125,18 L9,18 C9.43746985,17.9980525 9.83414013,17.7426741 10.017,17.34525 C10.043879,17.2867305 10.1026051,17.2494394 10.167,17.25 L12.75,17.25 C13.7855339,17.25 14.625,16.4105339 14.625,15.375 L14.625,11.4375 C14.625,11.3339466 14.7089466,11.25 14.8125,11.25 L16.875,11.25 C17.4963203,11.25 18,10.7463203 18,10.125 L18,9.375 Z" id="🎨" fill="#313133" fill-rule="nonzero"></path>
    </g>
</svg>