<?xml version="1.0" encoding="UTF-8"?>
<svg width="18px" height="18px" viewBox="0 0 18 18" version="1.1" xmlns="http://www.w3.org/2000/svg" xmlns:xlink="http://www.w3.org/1999/xlink">
    <!-- Generator: Sketch 52.5 (67469) - http://www.bohemiancoding.com/sketch -->
    <title>Icons/18px/Folder (Outline)</title>
    <desc>Created with Sketch.</desc>
    <g id="Icons/18px/Folder-(Outline)" stroke="none" stroke-width="1" fill="none" fill-rule="evenodd">
        <path d="M7.07667251,2.61111126 L15.75,2.61111126 C17.0050901,2.61111126 18,3.67971821 18,4.97222235 L18,14.6388889 C18,15.9313931 17.0050901,17 15.75,17 L2.25,17 C0.994909929,17 0,15.9313931 0,14.6388889 L0,3.36111126 C0,2.06860711 0.994909929,1.00000017 2.25,1.00000017 L4.62863502,1.00000025 C5.2370063,0.9997042 5.81682167,1.25737968 6.23916075,1.71071297 L7.07667251,2.61111126 Z M16.5,4.97222235 C16.5,4.48514232 16.1517642,4.11111126 15.75,4.11111126 L6.75,4.11111126 C6.54167033,4.11111126 6.34272723,4.02445894 6.20083925,3.87191697 L5.14124283,2.73275793 C5.00029138,2.58146259 4.81678112,2.49990887 4.629,2.50000017 L2.25,2.50000017 C1.84823582,2.50000017 1.5,2.87403123 1.5,3.36111126 L1.5,14.6388889 C1.5,15.1259689 1.84823582,15.5 2.25,15.5 L15.75,15.5 C16.1517642,15.5 16.5,15.1259689 16.5,14.6388889 L16.5,4.97222235 Z" id="🎨" fill="#313133" fill-rule="nonzero"></path>
    </g>
</svg>