<?xml version="1.0" encoding="UTF-8"?>
<svg width="18px" height="18px" viewBox="0 0 18 18" version="1.1" xmlns="http://www.w3.org/2000/svg" xmlns:xlink="http://www.w3.org/1999/xlink">
    <!-- Generator: Sketch 52.5 (67469) - http://www.bohemiancoding.com/sketch -->
    <title>Icons/18px/Grabber</title>
    <desc>Created with Sketch.</desc>
    <g id="Icons/18px/Grabber" stroke="none" stroke-width="1" fill="none" fill-rule="evenodd">
        <path d="M2.175,14.0378571 C1.76078644,14.0378571 1.425,13.7020707 1.425,13.2878571 C1.425,12.8736436 1.76078644,12.5378571 2.175,12.5378571 L15.825,12.5378571 C16.2392136,12.5378571 16.575,12.8736436 16.575,13.2878571 C16.575,13.7020707 16.2392136,14.0378571 15.825,14.0378571 L2.175,14.0378571 Z M2.175,9.75214286 C1.76078644,9.75214286 1.425,9.41635642 1.425,9.00214286 C1.425,8.58792929 1.76078644,8.25214286 2.175,8.25214286 L15.825,8.25214286 C16.2392136,8.25214286 16.575,8.58792929 16.575,9.00214286 C16.575,9.41635642 16.2392136,9.75214286 15.825,9.75214286 L2.175,9.75214286 Z M2.175,5.46642857 C1.76078644,5.46642857 1.425,5.13064213 1.425,4.71642857 C1.425,4.30221501 1.76078644,3.96642857 2.175,3.96642857 L15.825,3.96642857 C16.2392136,3.96642857 16.575,4.30221501 16.575,4.71642857 C16.575,5.13064213 16.2392136,5.46642857 15.825,5.46642857 L2.175,5.46642857 Z" id="🎨" fill="#313133" fill-rule="nonzero"></path>
    </g>
</svg>