<?xml version="1.0" encoding="UTF-8"?>
<svg width="18px" height="18px" viewBox="0 0 18 18" version="1.1" xmlns="http://www.w3.org/2000/svg" xmlns:xlink="http://www.w3.org/1999/xlink">
    <!-- Generator: Sketch 52.5 (67469) - http://www.bohemiancoding.com/sketch -->
    <title>Icons/18px/Grid View</title>
    <desc>Created with Sketch.</desc>
    <g id="Icons/18px/Grid-View" stroke="none" stroke-width="1" fill="none" fill-rule="evenodd">
        <path d="M7,11 L11,11 L11,7 L7,7 L7,11 Z M5.5,11 L5.5,7 L1.5,7 L1.5,5.5 L5.5,5.5 L5.5,1.5 L7,1.5 L7,5.5 L11,5.5 L11,1.5 L12.5,1.5 L12.5,5.5 L16.5,5.5 L16.5,7 L12.5,7 L12.5,11 L16.5,11 L16.5,12.5 L12.5,12.5 L12.5,16.5 L11,16.5 L11,12.5 L7,12.5 L7,16.5 L5.5,16.5 L5.5,12.5 L1.5,12.5 L1.5,11 L5.5,11 Z M3.5,1.5 C2.3954305,1.5 1.5,2.3954305 1.5,3.5 L1.5,14.5 C1.5,15.6045695 2.3954305,16.5 3.5,16.5 L14.5,16.5 C15.6045695,16.5 16.5,15.6045695 16.5,14.5 L16.5,3.5 C16.5,2.3954305 15.6045695,1.5 14.5,1.5 L3.5,1.5 Z M3.5,0 L14.5,0 C16.4329966,-3.88578059e-16 18,1.56700338 18,3.5 L18,14.5 C18,16.4329966 16.4329966,18 14.5,18 L3.5,18 C1.56700338,18 3.88578059e-16,16.4329966 0,14.5 L0,3.5 C-3.88578059e-16,1.56700338 1.56700338,3.88578059e-16 3.5,0 Z" id="🎨" fill="#313133" fill-rule="nonzero"></path>
    </g>
</svg>