<?xml version="1.0" encoding="UTF-8"?>
<svg width="18px" height="18px" viewBox="0 0 18 18" version="1.1" xmlns="http://www.w3.org/2000/svg" xmlns:xlink="http://www.w3.org/1999/xlink">
    <!-- Generator: Sketch 52.5 (67469) - http://www.bohemiancoding.com/sketch -->
    <title>Icons/18px/List View</title>
    <desc>Created with Sketch.</desc>
    <g id="Icons/18px/List-View" stroke="none" stroke-width="1" fill="none" fill-rule="evenodd">
        <path d="M0.75,12.375 L17.25,12.375 C17.6642136,12.375 18,12.7107864 18,13.125 C18,13.5392136 17.6642136,13.875 17.25,13.875 L0.75,13.875 C0.335786438,13.875 5.07265313e-17,13.5392136 0,13.125 C-5.07265313e-17,12.7107864 0.335786438,12.375 0.75,12.375 Z M0.75,8.25 L17.25,8.25 C17.6642136,8.25 18,8.58578644 18,9 C18,9.41421356 17.6642136,9.75 17.25,9.75 L0.75,9.75 C0.335786438,9.75 5.07265313e-17,9.41421356 0,9 C-5.07265313e-17,8.58578644 0.335786438,8.25 0.75,8.25 Z M0.75,4.125 L17.25,4.125 C17.6642136,4.125 18,4.46078644 18,4.875 C18,5.28921356 17.6642136,5.625 17.25,5.625 L0.75,5.625 C0.335786438,5.625 5.07265313e-17,5.28921356 0,4.875 C-5.07265313e-17,4.46078644 0.335786438,4.125 0.75,4.125 Z" id="🎨" fill="#313133" fill-rule="nonzero"></path>
    </g>
</svg>