<?xml version="1.0" encoding="UTF-8"?>
<svg width="18px" height="18px" viewBox="0 0 18 18" version="1.1" xmlns="http://www.w3.org/2000/svg" xmlns:xlink="http://www.w3.org/1999/xlink">
    <!-- Generator: Sketch 52.5 (67469) - http://www.bohemiancoding.com/sketch -->
    <title>Icons/18px/Locked</title>
    <desc>Created with Sketch.</desc>
    <g id="Icons/18px/Locked" stroke="none" stroke-width="1" fill="none" fill-rule="evenodd">
        <path d="M6.25,6.75 L11.75,6.75 L11.75,5 C11.75,3.48121694 10.5187831,2.25 9,2.25 C7.48121694,2.25 6.25,3.48121694 6.25,5 L6.25,6.75 Z M13.25,6.75163621 C14.3619611,6.79537819 15.25,7.71064946 15.25,8.83333333 L15.25,15.1666667 C15.25,16.3172599 14.3172599,17.25 13.1666667,17.25 L4.83333333,17.25 C3.6827401,17.25 2.75,16.3172599 2.75,15.1666667 L2.75,8.83333333 C2.75,7.71064946 3.6380389,6.79537819 4.75,6.75163621 L4.75,5 C4.75,2.65278981 6.65278981,0.75 9,0.75 C11.3472102,0.75 13.25,2.65278981 13.25,5 L13.25,6.75163621 Z M4.83333333,8.25 C4.51116723,8.25 4.25,8.51116723 4.25,8.83333333 L4.25,15.1666667 C4.25,15.4888328 4.51116723,15.75 4.83333333,15.75 L13.1666667,15.75 C13.4888328,15.75 13.75,15.4888328 13.75,15.1666667 L13.75,8.83333333 C13.75,8.51116723 13.4888328,8.25 13.1666667,8.25 L4.83333333,8.25 Z M8.25,11 C8.25,10.5857864 8.58578644,10.25 9,10.25 C9.41421356,10.25 9.75,10.5857864 9.75,11 L9.75,13 C9.75,13.4142136 9.41421356,13.75 9,13.75 C8.58578644,13.75 8.25,13.4142136 8.25,13 L8.25,11 Z" id="🎨" fill="#313133" fill-rule="nonzero"></path>
    </g>
</svg>