<?xml version="1.0" encoding="UTF-8"?>
<svg width="18px" height="18px" viewBox="0 0 18 18" version="1.1" xmlns="http://www.w3.org/2000/svg" xmlns:xlink="http://www.w3.org/1999/xlink">
    <!-- Generator: Sketch 52.5 (67469) - http://www.bohemiancoding.com/sketch -->
    <title>Icons/18px/Mail</title>
    <desc>Created with Sketch.</desc>
    <g id="Icons/18px/Mail" stroke="none" stroke-width="1" fill="none" fill-rule="evenodd">
        <path d="M2.55357827,5.09127353 L8.26963813,8.84507707 C8.68725681,9.09667341 9.19422467,9.09667341 9.59296141,8.85683772 L15.3608569,5.14445162 C14.9949316,4.53376719 14.3266836,4.125 13.562963,4.125 L4.31851852,4.125 C3.57718514,4.125 2.92580923,4.51015368 2.55357827,5.09127353 Z M2.22407407,6.6693467 L2.22407407,11.7805556 C2.22407407,12.9372853 3.16178879,13.875 4.31851852,13.875 L13.562963,13.875 C14.7196927,13.875 15.6574074,12.9372853 15.6574074,11.7805556 L15.6574074,6.73737335 L10.3859048,10.1299229 C9.49211392,10.6683915 8.38936756,10.6683915 7.47096321,10.1144362 L2.22407407,6.6693467 Z M4.31851852,2.625 L13.562963,2.625 C15.5481198,2.625 17.1574074,4.23428759 17.1574074,6.21944444 L17.1574074,11.7805556 C17.1574074,13.7657124 15.5481198,15.375 13.562963,15.375 L4.31851852,15.375 C2.33336167,15.375 0.724074074,13.7657124 0.724074074,11.7805556 L0.724074074,6.21944444 C0.724074074,4.23428759 2.33336167,2.625 4.31851852,2.625 Z" id="🎨" fill="#313133" fill-rule="nonzero"></path>
    </g>
</svg>