<?xml version="1.0" encoding="UTF-8"?>
<svg width="18px" height="18px" viewBox="0 0 18 18" version="1.1" xmlns="http://www.w3.org/2000/svg" xmlns:xlink="http://www.w3.org/1999/xlink">
    <!-- Generator: Sketch 52.5 (67469) - http://www.bohemiancoding.com/sketch -->
    <title>Icons/18px/Message 1</title>
    <desc>Created with Sketch.</desc>
    <g id="Icons/18px/Message-1" stroke="none" stroke-width="1" fill="none" fill-rule="evenodd">
        <path d="M16.826087,1 L1.17391304,1 C0.525578772,1 8.68870193e-17,1.51167021 0,2.1428474 L0,12.4680927 C0.00219303144,12.7669464 0.127903117,13.0523517 0.34876901,13.2599187 C0.569634902,13.4674857 0.867049307,13.5797275 1.17391304,13.5713214 L3.52173913,13.5713214 L3.52173913,16.6189145 C3.52168738,16.7606966 3.60251959,16.8907763 3.73154151,16.9565403 C3.86056342,17.0223042 4.01642584,17.0128705 4.13608696,16.9320547 L9.12208696,13.5713214 L16.826087,13.5713214 C17.4744212,13.5713214 18,13.0596512 18,12.428474 L18,2.1428474 C18,1.51167021 17.4744212,1 16.826087,1 Z M14.4782609,7.47613528 C14.4782609,8.10731247 13.9526821,8.61898268 13.3043478,8.61898268 C12.6560136,8.61898268 12.1304348,8.10731247 12.1304348,7.47613528 C12.1304348,6.84495808 12.6560136,6.33328787 13.3043478,6.33328787 C13.9526821,6.33328787 14.4782609,6.84495808 14.4782609,7.47613528 Z M3.52173913,7.47613528 C3.52173913,6.84495808 4.0473179,6.33328787 4.69565217,6.33328787 C5.34398645,6.33328787 5.86956522,6.84495808 5.86956522,7.47613528 C5.86956522,8.10731247 5.34398645,8.61898268 4.69565217,8.61898268 C4.0473179,8.61898268 3.52173913,8.10731247 3.52173913,7.47613528 Z M7.82608696,7.47613528 C7.82608696,6.84495808 8.35166573,6.33328787 9,6.33328787 C9.64833427,6.33328787 10.173913,6.84495808 10.173913,7.47613528 C10.173913,8.10731247 9.64833427,8.61898268 9,8.61898268 C8.35166573,8.61898268 7.82608696,8.10731247 7.82608696,7.47613528 Z" id="🎨" fill="#313133" fill-rule="nonzero"></path>
    </g>
</svg>