<?xml version="1.0" encoding="UTF-8"?>
<svg width="18px" height="18px" viewBox="0 0 18 18" version="1.1" xmlns="http://www.w3.org/2000/svg" xmlns:xlink="http://www.w3.org/1999/xlink">
    <!-- Generator: Sketch 52.5 (67469) - http://www.bohemiancoding.com/sketch -->
    <title>Icons/18px/Message 2</title>
    <desc>Created with Sketch.</desc>
    <g id="Icons/18px/Message-2" stroke="none" stroke-width="1" fill="none" fill-rule="evenodd">
        <path d="M16.826087,1 L1.17391304,1 C0.525578772,1 8.68870193e-17,1.51167021 0,2.1428474 L0,12.4680927 C0.00219303144,12.7669464 0.127903117,13.0523517 0.34876901,13.2599187 C0.569634902,13.4674857 0.867049307,13.5797275 1.17391304,13.5713214 L3.52173913,13.5713214 L3.52173913,16.6189145 C3.52168738,16.7606966 3.60251959,16.8907763 3.73154151,16.9565403 C3.86056342,17.0223042 4.01642584,17.0128705 4.13608696,16.9320547 L9.12208696,13.5713214 L16.826087,13.5713214 C17.4744212,13.5713214 18,13.0596512 18,12.428474 L18,2.1428474 C18,1.51167021 17.4744212,1 16.826087,1 Z M3.7173913,8.99993181 C3.7173913,8.68434322 3.98018069,8.42850811 4.30434783,8.42850811 L13.6956522,8.42850811 C14.0198193,8.42850811 14.2826087,8.68434322 14.2826087,8.99993181 C14.2826087,9.31552041 14.0198193,9.57135551 13.6956522,9.57135551 L4.30434783,9.57135551 C3.98018069,9.57135551 3.7173913,9.31552041 3.7173913,8.99993181 Z M13.6956522,6.14281331 L4.30434783,6.14281331 C3.98018069,6.14281331 3.7173913,5.8869782 3.7173913,5.57138961 C3.7173913,5.25580101 3.98018069,4.99996591 4.30434783,4.99996591 L13.6956522,4.99996591 C14.0198193,4.99996591 14.2826087,5.25580101 14.2826087,5.57138961 C14.2826087,5.8869782 14.0198193,6.14281331 13.6956522,6.14281331 Z" id="🎨" fill="#313133" fill-rule="nonzero" transform="translate(9.000000, 9.000000) scale(-1, 1) translate(-9.000000, -9.000000) "></path>
    </g>
</svg>