<?xml version="1.0" encoding="UTF-8"?>
<svg width="20px" height="20px" viewBox="0 0 20 20" version="1.1" xmlns="http://www.w3.org/2000/svg" xmlns:xlink="http://www.w3.org/1999/xlink">
    <!-- Generator: Sketch 52.5 (67469) - http://www.bohemiancoding.com/sketch -->
    <title>Icons/20px/Notifications/New</title>
    <desc>Created with Sketch.</desc>
    <g id="Icons/20px/Notifications/New" stroke="none" stroke-width="1" fill="none" fill-rule="evenodd">
        <path d="M16.5,6.88849179 C16.8216114,6.96146928 17.156306,7 17.5,7 C17.6690045,7 17.8358331,6.99068334 18,6.97253561 L18,15.5 C18,17.9852814 15.9852814,20 13.5,20 L4.5,20 C2.01471863,20 3.33066907e-16,17.9852814 0,15.5 L0,6.5 C-3.33066907e-16,4.01471863 2.01471863,2 4.5,2 L13.0274644,2 C13.0093167,2.16416693 13,2.33099545 13,2.5 C13,2.84369398 13.0385307,3.17838863 13.1115082,3.5 L4.5,3.5 C2.84314575,3.5 1.5,4.84314575 1.5,6.5 L1.5,15.5 C1.5,17.1568542 2.84314575,18.5 4.5,18.5 L13.5,18.5 C15.1568542,18.5 16.5,17.1568542 16.5,15.5 L16.5,6.88849179 Z" id="Notification" fill="#A4A4AE" fill-rule="nonzero"></path>
        <path d="M17.5,5 C16.1192881,5 15,3.88071187 15,2.5 C15,1.11928813 16.1192881,0 17.5,0 C18.8807119,0 20,1.11928813 20,2.5 C20,3.88071187 18.8807119,5 17.5,5 Z" id="Badge" fill="#C76B6B" fill-rule="nonzero"></path>
    </g>
</svg>