<?xml version="1.0" encoding="UTF-8"?>
<svg width="18px" height="18px" viewBox="0 0 18 18" version="1.1" xmlns="http://www.w3.org/2000/svg" xmlns:xlink="http://www.w3.org/1999/xlink">
    <!-- Generator: Sketch 52.5 (67469) - http://www.bohemiancoding.com/sketch -->
    <title>Icons/18px/Plus</title>
    <desc>Created with Sketch.</desc>
    <g id="Icons/18px/Plus" stroke="none" stroke-width="1" fill="none" fill-rule="evenodd">
        <path d="M8.75,8.76424506 L8.75,1 C8.75,0.585786438 9.08578644,0.25 9.5,0.25 C9.91421356,0.25 10.25,0.585786438 10.25,1 L10.25,8.76700241 L17.0013787,8.77941303 C17.4155915,8.78017445 17.7507602,9.11657758 17.7499987,9.53079044 C17.7492373,9.9450033 17.4128342,10.2801719 16.9986213,10.2794105 L10.25,10.2670049 L10.25,17 C10.25,17.4142136 9.91421356,17.75 9.5,17.75 C9.08578644,17.75 8.75,17.4142136 8.75,17 L8.75,10.2642476 L0.998621326,10.2499987 C0.584408463,10.2492373 0.249239846,9.91283419 0.250001267,9.49862133 C0.250762688,9.08440846 0.587165812,8.74923985 1.00137867,8.75000127 L8.75,8.76424506 Z" id="🎨" fill="#313133" fill-rule="nonzero"></path>
    </g>
</svg>