<?xml version="1.0" encoding="UTF-8"?>
<svg width="18px" height="18px" viewBox="0 0 18 18" version="1.1" xmlns="http://www.w3.org/2000/svg" xmlns:xlink="http://www.w3.org/1999/xlink">
    <!-- Generator: Sketch 52.5 (67469) - http://www.bohemiancoding.com/sketch -->
    <title>Icons/18px/Robot</title>
    <desc>Created with Sketch.</desc>
    <g id="Icons/18px/Robot" stroke="none" stroke-width="1" fill="none" fill-rule="evenodd">
        <path d="M4.1249951,8.24999999 C3.2967384,8.24999999 2.62530368,7.57842712 2.62530368,6.74999999 L2.62530368,1.5 C2.62530368,0.671572875 3.2967384,-4.44596475e-14 4.1249951,-4.4408921e-14 L13.8729893,-4.4408921e-14 C14.701246,-4.43581945e-14 15.3726808,0.671572875 15.3726808,1.5 L15.3726808,6.74999999 C15.3726808,7.57842712 14.701246,8.24999999 13.8729893,8.24999999 L4.1249951,8.24999999 Z M11.9983751,3 C11.3771825,3 10.8736065,3.50367965 10.8736065,4.125 C10.8736065,4.74632034 11.3771825,5.25 11.9983751,5.25 C12.6195676,5.25 13.1231436,4.74632034 13.1231436,4.125 C13.1231436,3.50367965 12.6195676,3 11.9983751,3 Z M5.99960938,3 C5.37841685,3 4.87484081,3.50367965 4.87484081,4.125 C4.87484081,4.74632034 5.37841685,5.25 5.99960938,5.25 C6.6208019,5.25 7.12437794,4.74632034 7.12437794,4.125 C7.12437794,3.50367965 6.6208019,3 5.99960938,3 Z M7.87422365,9.37499999 L10.1237608,9.37499999 C10.5378891,9.37499999 10.8736065,9.71078643 10.8736065,10.125 C10.8736065,10.5392136 10.5378891,10.875 10.1237608,10.875 L7.87422365,10.875 C7.4600953,10.875 7.12437794,10.5392136 7.12437794,10.125 C7.12437794,9.71078643 7.4600953,9.37499999 7.87422365,9.37499999 Z M17.4722487,7.40024999 C18.281407,8.47534995 18.1466872,9.98834335 17.1603129,10.9035 C17.0140575,11.0397248 16.9282221,11.2287096 16.921862,11.4285 C16.8885096,12.5496526 16.359167,13.5981149 15.4769093,14.2905 L14.9902594,14.6655 C14.7972614,14.8159337 14.6897839,15.0510891 14.7023187,15.2955 C14.7171973,15.6012215 14.6919881,15.9075757 14.6273341,16.20675 C14.6205855,16.23525 14.6130871,16.26375 14.6033391,16.29225 L14.2771562,17.241 C14.1209807,17.6950262 13.6939226,17.9998722 13.213875,18 L4.78410948,18 C4.30358952,18.0000824 3.87608723,17.694833 3.72007842,17.24025 L3.39389553,16.2915 C3.38414754,16.263 3.37664908,16.2345 3.36990047,16.206 C3.30524645,15.9068257 3.2800373,15.6004715 3.2949159,15.29475 C3.30745066,15.0503391 3.19997316,14.8151837 3.00697515,14.66475 L2.52032528,14.28975 C1.63806762,13.5973649 1.10872503,12.5489026 1.07537259,11.42775 C1.06901252,11.2279596 0.983177071,11.0389748 0.836921659,10.90275 C-0.146139875,9.98803293 -0.280411583,8.47870256 0.525735689,7.40474999 C0.68647213,7.19039063 0.949334557,7.07808394 1.21530524,7.11013474 C1.48127592,7.14218555 1.70994758,7.31372458 1.81518181,7.56013475 C1.92041605,7.80654491 1.88622527,8.09039064 1.72548883,8.30474999 C1.35277333,8.80180627 1.45348854,9.50695777 1.95044256,9.87974997 C2.44739657,10.2525422 3.15240301,10.1518062 3.52511853,9.65474999 C3.77359555,9.32337915 4.24359984,9.25622187 4.57490251,9.50475001 C4.90620519,9.75327814 4.97334867,10.2233791 4.72487167,10.55475 C4.27075226,11.1700576 3.56768409,11.5528294 2.8045168,11.60025 C2.74987421,11.6043423 2.69972774,11.6320497 2.66717395,11.676136 C2.63462017,11.7202223 2.62289172,11.7763097 2.63505167,11.82975 C2.75168902,12.3350764 3.03806331,12.7851101 3.44638473,13.10475 L3.73657502,13.32975 C3.83833562,13.4090473 3.98488221,13.392019 4.06575729,13.2915 C4.72321271,12.4738427 5.71613818,11.9987956 6.76520185,12 L11.2327826,12 C12.2813643,11.9968785 13.2747565,12.4696782 13.9337268,13.2855 C14.0146019,13.386019 14.1611485,13.4030473 14.2629091,13.32375 L14.5530994,13.09875 C14.9621393,12.778159 15.2485844,12.32669 15.3644325,11.82 C15.3765924,11.7665597 15.364864,11.7104723 15.3323102,11.666386 C15.2997564,11.6222997 15.2496099,11.5945923 15.1949673,11.5905 C14.432184,11.544673 13.7286824,11.1638858 13.2731128,10.55025 C13.0246358,10.2188791 13.0917792,9.74877813 13.4230819,9.50024999 C13.7543846,9.25172185 14.2243889,9.31887914 14.4728659,9.65024999 C14.8455814,10.1473062 15.5505879,10.2480421 16.0475419,9.87524995 C16.5444959,9.50245776 16.6452111,8.79730627 16.2724956,8.30024999 C16.0240186,7.96887914 16.0911621,7.49877813 16.4224648,7.25024999 C16.7537674,7.00172186 17.2237717,7.06887914 17.4722487,7.40024999 Z" id="🎨" fill="#313133" fill-rule="nonzero"></path>
    </g>
</svg>