<?xml version="1.0" encoding="UTF-8"?>
<svg width="18px" height="18px" viewBox="0 0 18 18" version="1.1" xmlns="http://www.w3.org/2000/svg" xmlns:xlink="http://www.w3.org/1999/xlink">
    <!-- Generator: Sketch 52.5 (67469) - http://www.bohemiancoding.com/sketch -->
    <title>Icons/18px/Search</title>
    <desc>Created with Sketch.</desc>
    <g id="Icons/18px/Search" stroke="none" stroke-width="1" fill="none" fill-rule="evenodd">
        <path d="M12.7639247,11.7026586 L17.0224313,15.9617711 C17.3153037,16.2546852 17.3152699,16.7295589 17.0223559,17.0224313 C16.7294418,17.3153037 16.2545681,17.3152699 15.9616957,17.0223559 L11.7032641,12.7633184 C10.5230705,13.7117075 9.02375501,14.2791915 7.3918965,14.2791915 C3.58781175,14.2791915 0.503991741,11.1953715 0.503991741,7.39128677 C0.503991741,3.58720202 3.58781175,0.503382012 7.3918965,0.503382012 C11.1959813,0.503382012 14.2798013,3.58720202 14.2798013,7.39128677 C14.2798013,9.02314727 13.7123158,10.5224644 12.7639247,11.7026586 Z M11.2212084,11.1815233 C12.1847688,10.2080914 12.7798013,8.86917773 12.7798013,7.39128677 C12.7798013,4.41562914 10.3675541,2.00338201 7.3918965,2.00338201 C4.41623887,2.00338201 2.00399174,4.41562914 2.00399174,7.39128677 C2.00399174,10.3669444 4.41623887,12.7791915 7.3918965,12.7791915 C8.86981696,12.7791915 10.2087546,12.1841353 11.1821913,11.2205409 C11.1884447,11.2138183 11.1948443,11.2071824 11.2013902,11.2006375 C11.2079075,11.1941211 11.2145149,11.1877497 11.2212084,11.1815233 Z" id="🎨" fill="#313133" fill-rule="nonzero"></path>
    </g>
</svg>