<?xml version="1.0" encoding="UTF-8"?>
<svg width="18px" height="18px" viewBox="0 0 18 18" version="1.1" xmlns="http://www.w3.org/2000/svg" xmlns:xlink="http://www.w3.org/1999/xlink">
    <!-- Generator: Sketch 52.5 (67469) - http://www.bohemiancoding.com/sketch -->
    <title>Icons/18px/Split</title>
    <desc>Created with Sketch.</desc>
    <g id="Icons/18px/Split" stroke="none" stroke-width="1" fill="none" fill-rule="evenodd">
        <path d="M15.5150112,7.61743253 C15.8443031,7.71193013 16.2004188,7.59226089 16.3920248,7.32272058 L17.8685655,5.23468637 C18.0438115,4.98710116 18.0438115,4.6644459 17.8685655,4.41686069 L16.3920248,2.3280897 C16.2009225,2.05794515 15.8447337,1.93756486 15.5150621,2.03170468 C15.1853905,2.1258445 14.959961,2.41230959 14.9600383,2.73700254 L14.9600383,3.71913013 C14.9600383,3.82085821 14.8725489,3.90332511 14.7646253,3.90332511 L13.5264884,3.90332511 C11.1580828,3.90332511 10.1786728,5.2884713 9.39154918,6.40174571 C8.60989715,7.50691555 8.14637749,8.07865675 6.88244615,8.07865675 L0.977065042,8.07865675 C0.43744692,8.07865675 4.33904042e-17,8.49099124 0,8.99963161 C-4.33904042e-17,9.50827198 0.43744692,9.92060647 0.977065042,9.92060647 L6.88244615,9.92060647 C8.14637749,9.92060647 8.6122421,10.4952948 9.39154918,11.5975175 C10.1786728,12.7107919 11.1580828,14.0959381 13.5264884,14.0959381 L14.7646253,14.0959381 C14.8725489,14.0959381 14.9600383,14.178405 14.9600383,14.2801331 L14.9600383,15.2629975 C14.959961,15.5876904 15.1853905,15.8741555 15.5150621,15.9682953 C15.8447337,16.0624351 16.2009225,15.9420549 16.3920248,15.6719103 L17.8685655,13.5846129 C18.0438115,13.3370277 18.0438115,13.0143724 17.8685655,12.7667872 L16.3920248,10.678753 C16.2009225,10.4086084 15.8447337,10.2882281 15.5150621,10.382368 C15.1853905,10.4765078 14.959961,10.7629729 14.9600383,11.0876658 L14.9600383,12.0705302 C14.9600383,12.1722583 14.8725489,12.2547252 14.7646253,12.2547252 L13.5264884,12.2547252 C12.2633388,12.2547252 11.7974741,11.6800369 11.0173854,10.5778141 C10.6393403,9.99518767 10.1780039,9.46438981 9.64636774,9.00036839 C10.1778088,8.53617397 10.639122,8.00540289 11.0173854,7.42292264 C11.7990374,6.31775281 12.2633388,5.74601161 13.5264884,5.74601161 L14.7646253,5.74601161 C14.8725489,5.74601161 14.9600383,5.82847851 14.9600383,5.93020658 L14.9600383,6.91233418 C14.9600474,7.23694022 15.1854346,7.52329678 15.5150112,7.61743253 Z" id="🎨" fill="#313133" fill-rule="nonzero"></path>
    </g>
</svg>