<?xml version="1.0" encoding="UTF-8"?>
<svg width="18px" height="18px" viewBox="0 0 18 18" version="1.1" xmlns="http://www.w3.org/2000/svg" xmlns:xlink="http://www.w3.org/1999/xlink">
    <!-- Generator: Sketch 52.5 (67469) - http://www.bohemiancoding.com/sketch -->
    <title>Icons/18px/Stop</title>
    <desc>Created with Sketch.</desc>
    <g id="Icons/18px/Stop" stroke="none" stroke-width="1" fill="none" fill-rule="evenodd">
        <path d="M0.00600125831,12.1277477 C0.00567778476,12.5273351 0.16565978,12.9103448 0.450093645,13.1909404 L4.83775644,17.5615105 C5.11798971,17.8419762 5.49829381,17.9993669 5.89472632,17.9989427 L12.0512571,18.0071961 C12.4445245,18.0075903 12.8220123,17.8525184 13.1014756,17.5757664 L17.549901,13.1939417 C17.8362774,12.9120078 17.9982958,12.527404 17.9999947,12.1254967 L17.9999947,5.97293452 C18.0010338,5.57607735 17.8435973,5.19523392 17.5626537,4.91499395 L13.1194793,0.449884485 C12.8384629,0.165827884 12.4552878,0.00636353201 12.055758,0.00720013232 L5.90447835,0.00720013232 C5.50352637,0.00696348255 5.11894096,0.166228535 4.83550597,0.449884485 L0.434340368,4.92174676 C0.15595233,5.20160955 -0.000225809232,5.58040027 9.83061175e-09,5.97518546 L0.00600125831,12.1277477 Z M6.00724973,5.15734487 C5.93802575,4.78530932 6.17757517,4.42579185 6.54752153,4.3465011 C6.9174679,4.26721035 7.28326748,4.49698314 7.37253376,4.86472301 L8.08218139,8.16084566 C8.08596068,8.17969124 8.10361542,8.19244454 8.12268982,8.19010785 C8.14192762,8.18817422 8.15654373,8.17193071 8.15644684,8.15259222 L8.15644684,4.07764524 C8.15644684,3.69226614 8.46879321,3.37985465 8.85409198,3.37985465 C9.23939075,3.37985465 9.55173711,3.69226614 9.55173711,4.07764524 L9.55173711,8.16384691 C9.55198049,8.18305405 9.56642265,8.19910423 9.58549414,8.20136254 C9.60456854,8.20369922 9.62222327,8.19094592 9.62600256,8.17210035 L10.3356502,5.03129238 C10.3884472,4.78708897 10.5674874,4.58960844 10.8053282,4.51323978 C11.0431689,4.43687113 11.3036765,4.49321658 11.4887203,4.66105134 C11.6737641,4.8288861 11.7552315,5.08271208 11.7024345,5.32691549 L10.9845352,9.24279623 C10.9814408,9.26052959 10.9911223,9.27802242 11.00779,9.28481373 C11.0246782,9.29094964 11.0435721,9.28475361 11.0535495,9.26980748 L12.2162914,7.43829476 C12.4234957,7.12346495 12.8430513,7.02982799 13.1644086,7.22669277 C13.4857658,7.42355755 13.5930228,7.839922 13.4067891,8.16759847 L12.4105819,10.0388778 C12.2161101,10.4034561 12.1145888,10.8103994 12.1150204,11.2236211 C12.1150204,12.7940251 11.6754289,14.0853129 10.022085,14.0860632 L8.38824507,14.0860632 C7.81641685,14.0856689 7.26946675,13.8521031 6.87367998,13.4392938 L4.42592076,10.1821874 L4.42592076,10.1776856 C4.14191828,9.9166223 4.12327826,9.47471121 4.3842871,9.19064952 C4.64529594,8.90658782 5.08711491,8.88794391 5.37111739,9.14900718 L6.68464065,10.2962349 C6.69649567,10.3063727 6.71338601,10.3081144 6.72705958,10.300609 C6.74073315,10.2931037 6.74833593,10.2779179 6.74615345,10.2624709 L6.00724973,5.15734487 Z" id="🎨" fill="#313133" fill-rule="nonzero"></path>
    </g>
</svg>